<?xml version="1.0" encoding="UTF-8" standalone="no"?>
<!DOCTYPE svg PUBLIC "-//W3C//DTD SVG 1.1//EN" "http://www.w3.org/Graphics/SVG/1.1/DTD/svg11.dtd">
<svg width="100%" height="100%" viewBox="0 0 800 800" version="1.1" xmlns="http://www.w3.org/2000/svg" xmlns:xlink="http://www.w3.org/1999/xlink" xml:space="preserve" xmlns:serif="http://www.serif.com/" style="fill-rule:evenodd;clip-rule:evenodd;stroke-linejoin:round;stroke-miterlimit:2;">
    <g transform="matrix(1,0,0,1,-145.704,-120.507)">
        <g transform="matrix(1.02434,0,0,0.983609,-33.24,50.9623)">
            <clipPath id="_clip1">
                <rect x="256.084" y="154.787" width="634.777" height="339.454"/>
            </clipPath>
            <g clip-path="url(#_clip1)">
                <path d="M573.472,154.787C748.644,154.787 890.861,302.855 890.861,485.235C890.861,667.614 748.644,815.682 573.472,815.682C398.301,815.682 256.084,667.614 256.084,485.235C256.084,302.855 398.301,154.787 573.472,154.787ZM573.472,187.831C731.126,187.831 859.122,321.093 859.122,485.235C859.122,649.376 731.126,782.638 573.472,782.638C415.818,782.638 287.822,649.376 287.822,485.235C287.822,321.093 415.818,187.831 573.472,187.831Z" style="fill:white;"/>
            </g>
        </g>
        <g transform="matrix(0.883138,0,0,1,23.5072,3.07501)">
            <path d="M739.299,534.035L702.333,501.389L240.508,501.389L240.508,534.036L739.299,534.036L739.299,534.035Z" style="fill:white;"/>
        </g>
        <g transform="matrix(0.236479,0.537126,-0.915225,0.402943,960.269,-62.2028)">
            <path d="M739.299,501.389L240.508,501.389L240.508,508.803L283.504,534.036L683.672,534.036L739.299,501.39L739.299,501.389Z" style="fill:white;"/>
        </g>
        <g transform="matrix(0.171768,-0.387787,0.91432,0.404992,-42.3294,366.306)">
            <path d="M739.299,501.389L240.508,501.389L240.508,534.036L711.657,534.036C718.988,534.036 726.019,532.801 731.203,530.602C736.387,528.404 739.299,525.422 739.299,522.312C739.299,512.95 739.299,501.389 739.299,501.389Z" style="fill:white;"/>
        </g>
        <g transform="matrix(1.02434,0,0,0.983609,-33.24,50.9623)">
            <clipPath id="_clip2">
                <rect x="256.084" y="525.943" width="634.777" height="289.739"/>
            </clipPath>
            <g clip-path="url(#_clip2)">
                <path d="M573.472,154.787C748.644,154.787 890.861,302.855 890.861,485.235C890.861,667.614 748.644,815.682 573.472,815.682C398.301,815.682 256.084,667.614 256.084,485.235C256.084,302.855 398.301,154.787 573.472,154.787ZM573.472,187.831C731.126,187.831 859.122,321.093 859.122,485.235C859.122,649.376 731.126,782.638 573.472,782.638C415.818,782.638 287.822,649.376 287.822,485.235C287.822,321.093 415.818,187.831 573.472,187.831Z" style="fill:white;"/>
            </g>
        </g>
        <g transform="matrix(0.000255962,0.517338,-1,0.000494768,1071.12,464.507)">
            <rect x="240.508" y="501.389" width="498.791" height="32.646" style="fill:white;"/>
        </g>
        <g transform="matrix(0.896949,0,0,1,194.836,66.9162)">
            <rect x="240.508" y="501.389" width="498.791" height="32.646" style="fill:white;"/>
        </g>
        <g transform="matrix(0.155256,-0.354828,0.916139,0.40086,-38.8647,359.329)">
            <path d="M739.299,526.576C739.299,512.666 710.183,501.389 674.268,501.389C539.149,501.389 240.508,501.389 240.508,501.389L240.508,534.036L739.299,534.036L739.299,526.576Z" style="fill:white;"/>
        </g>
        <g transform="matrix(0.569743,0,0,0.995207,206.336,-0.8756)">
            <path d="M454.184,461.855L478.132,492.558L430.236,492.558L454.184,461.855Z" style="fill:white;"/>
        </g>
        <g transform="matrix(1,0,0,1,0.0624869,0.0813945)">
            <rect x="469.494" y="479.694" width="17.706" height="9.546" style="fill:white;"/>
        </g>
        <g transform="matrix(8.00392,0,0,7.57553,-3933.92,-1634.46)">
            <clipPath id="_clip3">
                <rect x="545.355" y="249.761" width="30.523" height="10.649"/>
            </clipPath>
            <g clip-path="url(#_clip3)">
                <path d="M560.617,249.761L575.878,286.409L545.355,286.409L560.617,249.761Z" style="fill:white;"/>
            </g>
        </g>
    </g>
</svg>
